<svg id="Layer_1" data-name="Layer 1" xmlns="http://www.w3.org/2000/svg" xmlns:xlink="http://www.w3.org/1999/xlink" viewBox="0 0 240.4 123.89"><defs><style>.cls-1,.cls-10,.cls-11,.cls-13,.cls-5,.cls-6{fill:none;}.cls-2{clip-path:url(#clip-path);}.cls-3{fill:#fff;}.cls-4{clip-path:url(#clip-path-2);}.cls-5{stroke:#b0b0b0;}.cls-10,.cls-5{stroke-linecap:square;}.cls-5,.cls-6{stroke-linejoin:round;}.cls-10,.cls-5,.cls-6{stroke-width:0.8px;}.cls-10,.cls-6{stroke:#000;}.cls-7{font-size:7px;}.cls-12,.cls-7{font-family:DejaVuSans, DejaVu Sans;}.cls-8{fill:#3e76ad;}.cls-9{fill:#e8891c;}.cls-10,.cls-11,.cls-13{stroke-miterlimit:10;}.cls-11{stroke:#3e76ad;}.cls-12{font-size:6px;}.cls-13{stroke:#e8891c;}</style><clipPath id="clip-path"><rect class="cls-1" width="240.4" height="123.89"/></clipPath><clipPath id="clip-path-2"><rect class="cls-1" x="33.87" y="17.51" width="199.33" height="74.65"/></clipPath></defs><title>retention</title><g class="cls-2"><rect class="cls-3" width="240.4" height="123.89"/><rect class="cls-3" x="33.87" y="17.51" width="199.33" height="74.65"/><g class="cls-4"><line class="cls-5" x1="53.8" y1="92.16" x2="53.8" y2="17.51"/></g><line class="cls-6" x1="53.8" y1="92.16" x2="53.8" y2="95.66"/><text class="cls-7" transform="translate(49.45 104.47)">All</text><g class="cls-4"><line class="cls-5" x1="93.67" y1="92.16" x2="93.67" y2="17.51"/></g><line class="cls-6" x1="93.67" y1="92.16" x2="93.67" y2="95.66"/><text class="cls-7" transform="translate(91.44 104.47)">1</text><g class="cls-4"><line class="cls-5" x1="133.54" y1="92.16" x2="133.54" y2="17.51"/></g><line class="cls-6" x1="133.54" y1="92.16" x2="133.54" y2="95.66"/><text class="cls-7" transform="translate(131.31 104.47)">2</text><g class="cls-4"><line class="cls-5" x1="173.4" y1="92.16" x2="173.4" y2="17.51"/></g><line class="cls-6" x1="173.4" y1="92.16" x2="173.4" y2="95.66"/><text class="cls-7" transform="translate(171.18 104.47)">4</text><g class="cls-4"><line class="cls-5" x1="213.27" y1="92.16" x2="213.27" y2="17.51"/></g><line class="cls-6" x1="213.27" y1="92.16" x2="213.27" y2="95.66"/><text class="cls-7" transform="translate(211.04 104.47)">8</text><text class="cls-7" transform="translate(115.12 115.24)">Frequency</text><g class="cls-4"><line class="cls-5" x1="33.87" y1="87.18" x2="233.2" y2="87.18"/></g><line class="cls-6" x1="33.87" y1="87.18" x2="30.37" y2="87.18"/><text class="cls-7" transform="translate(22.42 89.84)">0</text><g class="cls-4"><line class="cls-5" x1="33.87" y1="77.23" x2="233.2" y2="77.23"/></g><line class="cls-6" x1="33.87" y1="77.23" x2="30.37" y2="77.23"/><text class="cls-7" transform="translate(22.42 79.89)">2</text><g class="cls-4"><line class="cls-5" x1="33.87" y1="67.28" x2="233.2" y2="67.28"/></g><line class="cls-6" x1="33.87" y1="67.28" x2="30.37" y2="67.28"/><text class="cls-7" transform="translate(22.42 69.93)">4</text><g class="cls-4"><line class="cls-5" x1="33.87" y1="57.32" x2="233.2" y2="57.32"/></g><line class="cls-6" x1="33.87" y1="57.32" x2="30.37" y2="57.32"/><text class="cls-7" transform="translate(22.42 59.98)">6</text><g class="cls-4"><line class="cls-5" x1="33.87" y1="47.37" x2="233.2" y2="47.37"/></g><line class="cls-6" x1="33.87" y1="47.37" x2="30.37" y2="47.37"/><text class="cls-7" transform="translate(22.42 50.02)">8</text><g class="cls-4"><line class="cls-5" x1="33.87" y1="37.41" x2="233.2" y2="37.41"/></g><line class="cls-6" x1="33.87" y1="37.41" x2="30.37" y2="37.41"/><text class="cls-7" transform="translate(17.97 40.07)">10</text><g class="cls-4"><line class="cls-5" x1="33.87" y1="27.46" x2="233.2" y2="27.46"/></g><line class="cls-6" x1="33.87" y1="27.46" x2="30.37" y2="27.46"/><text class="cls-7" transform="translate(17.97 30.12)">12</text><text class="cls-7" transform="translate(12.51 67.75) rotate(-90)">Correct</text><g class="cls-4"><rect class="cls-8" x="45.26" y="80.22" width="8.54" height="3.98"/></g><g class="cls-4"><rect class="cls-8" x="47.4" y="75.24" width="6.41" height="3.98"/></g><g class="cls-4"><rect class="cls-8" x="45.26" y="70.26" width="8.54" height="3.98"/></g><g class="cls-4"><rect class="cls-8" x="49.53" y="65.28" width="4.27" height="3.98"/></g><g class="cls-4"><rect class="cls-8" x="51.67" y="60.31" width="2.14" height="3.98"/></g><g class="cls-4"><rect class="cls-8" x="49.53" y="55.33" width="4.27" height="3.98"/></g><g class="cls-4"><rect class="cls-8" x="49.53" y="50.35" width="4.27" height="3.98"/></g><g class="cls-4"><rect class="cls-8" x="49.53" y="40.4" width="4.27" height="3.98"/></g><g class="cls-4"><rect class="cls-8" x="47.4" y="35.42" width="6.41" height="3.98"/></g><g class="cls-4"><rect class="cls-8" x="49.53" y="30.45" width="4.27" height="3.98"/></g><g class="cls-4"><rect class="cls-8" x="49.53" y="25.47" width="4.27" height="3.98"/></g><g class="cls-4"><rect class="cls-8" x="51.67" y="20.49" width="2.14" height="3.98"/></g><g class="cls-4"><rect class="cls-8" x="82.99" y="85.19" width="10.68" height="3.98"/></g><g class="cls-4"><rect class="cls-8" x="85.13" y="80.22" width="8.54" height="3.98"/></g><g class="cls-4"><rect class="cls-8" x="85.13" y="75.24" width="8.54" height="3.98"/></g><g class="cls-4"><rect class="cls-8" x="85.13" y="70.26" width="8.54" height="3.98"/></g><g class="cls-4"><rect class="cls-8" x="91.54" y="65.28" width="2.14" height="3.98"/></g><g class="cls-4"><rect class="cls-8" x="89.4" y="55.33" width="4.27" height="3.98"/></g><g class="cls-4"><rect class="cls-8" x="85.13" y="50.35" width="8.54" height="3.98"/></g><g class="cls-4"><rect class="cls-8" x="89.4" y="45.38" width="4.27" height="3.98"/></g><g class="cls-4"><rect class="cls-8" x="89.4" y="40.4" width="4.27" height="3.98"/></g><g class="cls-4"><rect class="cls-8" x="126.42" y="85.19" width="7.12" height="3.98"/></g><g class="cls-4"><rect class="cls-8" x="125.71" y="80.22" width="7.83" height="3.98"/></g><g class="cls-4"><rect class="cls-8" x="128.55" y="75.24" width="4.98" height="3.98"/></g><g class="cls-4"><rect class="cls-8" x="167" y="85.19" width="6.41" height="3.98"/></g><g class="cls-4"><rect class="cls-8" x="159.88" y="80.22" width="13.53" height="3.98"/></g><g class="cls-4"><rect class="cls-8" x="209" y="85.19" width="4.27" height="3.98"/></g><g class="cls-4"><rect class="cls-8" x="197.61" y="80.22" width="15.66" height="3.98"/></g><g class="cls-4"><rect class="cls-9" x="53.8" y="80.22" width="1.62" height="3.98"/></g><g class="cls-4"><rect class="cls-9" x="53.8" y="75.24" width="4.85" height="3.98"/></g><g class="cls-4"><rect class="cls-9" x="53.8" y="70.26" width="3.23" height="3.98"/></g><g class="cls-4"><rect class="cls-9" x="53.8" y="65.28" width="3.23" height="3.98"/></g><g class="cls-4"><rect class="cls-9" x="53.8" y="60.31" width="6.46" height="3.98"/></g><g class="cls-4"><rect class="cls-9" x="53.8" y="55.33" width="1.62" height="3.98"/></g><g class="cls-4"><rect class="cls-9" x="53.8" y="50.35" width="8.08" height="3.98"/></g><g class="cls-4"><rect class="cls-9" x="53.8" y="40.4" width="1.62" height="3.98"/></g><g class="cls-4"><rect class="cls-9" x="53.8" y="35.42" width="3.23" height="3.98"/></g><g class="cls-4"><rect class="cls-9" x="53.8" y="30.45" width="12.93" height="3.98"/></g><g class="cls-4"><rect class="cls-9" x="53.8" y="25.47" width="9.7" height="3.98"/></g><g class="cls-4"><rect class="cls-9" x="53.8" y="20.49" width="3.23" height="3.98"/></g><g class="cls-4"><rect class="cls-9" x="93.67" y="85.19" width="4.85" height="3.98"/></g><g class="cls-4"><rect class="cls-9" x="93.67" y="80.22" width="3.23" height="3.98"/></g><g class="cls-4"><rect class="cls-9" x="93.67" y="75.24" width="8.08" height="3.98"/></g><g class="cls-4"><rect class="cls-9" x="93.67" y="70.26" width="11.31" height="3.98"/></g><g class="cls-4"><rect class="cls-9" x="93.67" y="60.31" width="1.62" height="3.98"/></g><g class="cls-4"><rect class="cls-9" x="93.67" y="55.33" width="3.23" height="3.98"/></g><g class="cls-4"><rect class="cls-9" x="93.67" y="50.35" width="11.31" height="3.98"/></g><g class="cls-4"><rect class="cls-9" x="93.67" y="45.38" width="12.93" height="3.98"/></g><g class="cls-4"><rect class="cls-9" x="93.67" y="40.4" width="3.23" height="3.98"/></g><g class="cls-4"><rect class="cls-9" x="133.54" y="85.19" width="1.08" height="3.98"/></g><g class="cls-4"><rect class="cls-9" x="133.54" y="80.22" width="5.93" height="3.98"/></g><g class="cls-4"><rect class="cls-9" x="133.54" y="75.24" width="12.93" height="3.98"/></g><g class="cls-4"><rect class="cls-9" x="173.4" y="85.19" width="5.39" height="3.98"/></g><g class="cls-4"><rect class="cls-9" x="173.4" y="80.22" width="14.55" height="3.98"/></g><g class="cls-4"><rect class="cls-9" x="213.27" y="85.19" width="3.77" height="3.98"/></g><g class="cls-4"><rect class="cls-9" x="213.27" y="80.22" width="16.16" height="3.98"/></g><line class="cls-10" x1="33.87" y1="92.16" x2="33.87" y2="17.51"/><line class="cls-10" x1="233.2" y1="92.16" x2="233.2" y2="17.51"/><line class="cls-10" x1="33.87" y1="92.16" x2="233.2" y2="92.16"/><line class="cls-10" x1="33.87" y1="17.51" x2="233.2" y2="17.51"/><rect class="cls-3" x="83.78" y="7.2" width="99.52" height="5.81"/><rect class="cls-8" x="83.78" y="7.56" width="12" height="4.2"/><rect class="cls-11" x="83.78" y="7.56" width="12" height="4.2"/><text class="cls-12" transform="translate(100.58 11.76)">ExposeHK</text><rect class="cls-9" x="142.67" y="7.56" width="12" height="4.2"/><rect class="cls-13" x="142.67" y="7.56" width="12" height="4.2"/><text class="cls-12" transform="translate(159.47 11.76)">KeyMap</text></g></svg>