<svg id="Layer_1" data-name="Layer 1" xmlns="http://www.w3.org/2000/svg" viewBox="0 0 637.6 312.22"><defs><style>.cls-1,.cls-2{fill:#fff;stroke-width:5px;}.cls-1{stroke:#ef4136;}.cls-1,.cls-2,.cls-3{stroke-miterlimit:10;}.cls-2,.cls-3{stroke:#231f20;}.cls-3{fill:none;stroke-width:2px;}</style></defs><title>Artboard 1</title><circle class="cls-1" cx="76.65" cy="73.33" r="45.48"/><circle class="cls-1" cx="76.65" cy="73.33" r="37.18"/><ellipse class="cls-1" cx="76.65" cy="73.33" rx="28.88" ry="28.17"/><circle class="cls-1" cx="189.55" cy="73.33" r="45.48"/><circle class="cls-1" cx="189.55" cy="73.33" r="37.18"/><ellipse class="cls-1" cx="189.55" cy="73.33" rx="28.88" ry="28.17"/><circle class="cls-2" cx="76.65" cy="186.33" r="45.48"/><circle class="cls-2" cx="76.65" cy="186.33" r="37.18"/><ellipse class="cls-2" cx="76.65" cy="186.33" rx="28.88" ry="28.17"/><circle class="cls-2" cx="189.55" cy="186.33" r="45.48"/><circle class="cls-2" cx="189.55" cy="186.33" r="37.18"/><ellipse class="cls-2" cx="189.55" cy="186.33" rx="28.88" ry="28.17"/><rect class="cls-3" x="1" y="1" width="265.68" height="310.22"/><circle class="cls-3" cx="65.1" cy="273.61" r="13.9"/><line class="cls-3" x1="78.5" y1="269.92" x2="65.1" y2="273.61"/><circle class="cls-3" cx="110.58" cy="273.61" r="13.9"/><line class="cls-3" x1="110.58" y1="259.72" x2="110.58" y2="273.61"/><circle class="cls-3" cx="156.05" cy="273.61" r="13.9"/><line class="cls-3" x1="156.05" y1="259.72" x2="156.05" y2="273.61"/><circle class="cls-3" cx="194.59" cy="273.61" r="13.9"/><line class="cls-3" x1="202.39" y1="262.11" x2="194.59" y2="273.61"/><circle class="cls-1" cx="362.05" cy="104.2" r="45.48"/><circle class="cls-1" cx="362.05" cy="104.2" r="37.18"/><ellipse class="cls-1" cx="362.05" cy="104.2" rx="28.88" ry="28.17"/><circle class="cls-1" cx="474.95" cy="104.2" r="45.48"/><circle class="cls-1" cx="474.95" cy="104.2" r="37.18"/><ellipse class="cls-1" cx="474.95" cy="104.2" rx="28.88" ry="28.17"/><circle class="cls-2" cx="362.05" cy="217.2" r="45.48"/><circle class="cls-2" cx="362.05" cy="217.2" r="37.18"/><ellipse class="cls-2" cx="362.05" cy="217.2" rx="28.88" ry="28.17"/><circle class="cls-2" cx="474.95" cy="217.2" r="45.48"/><circle class="cls-2" cx="474.95" cy="217.2" r="37.18"/><ellipse class="cls-2" cx="474.95" cy="217.2" rx="28.88" ry="28.17"/><rect class="cls-3" x="286.4" y="31.87" width="350.2" height="256.67"/><circle class="cls-3" cx="560.73" cy="87.45" r="13.9"/><line class="cls-3" x1="574.12" y1="83.76" x2="560.73" y2="87.45"/><circle class="cls-3" cx="599.26" cy="127.48" r="13.9"/><line class="cls-3" x1="599.26" y1="113.58" x2="599.26" y2="127.48"/><circle class="cls-3" cx="560.73" cy="127.48" r="13.9"/><line class="cls-3" x1="560.73" y1="113.58" x2="560.73" y2="127.48"/><circle class="cls-3" cx="599.26" cy="87.45" r="13.9"/><line class="cls-3" x1="607.06" y1="75.95" x2="599.26" y2="87.45"/></svg>