<svg id="Layer_1" data-name="Layer 1" xmlns="http://www.w3.org/2000/svg" xmlns:xlink="http://www.w3.org/1999/xlink" viewBox="0 0 222.49 139.69"><defs><style>.cls-1,.cls-10,.cls-16,.cls-17,.cls-20,.cls-26,.cls-27,.cls-28,.cls-29,.cls-4,.cls-7{fill:none;}.cls-2{clip-path:url(#clip-path);}.cls-3{fill:#fff;}.cls-28,.cls-29,.cls-4{stroke:#000;}.cls-10,.cls-16,.cls-17,.cls-20,.cls-26,.cls-27,.cls-4,.cls-7{stroke-linejoin:round;}.cls-28,.cls-4,.cls-7{stroke-width:0.8px;}.cls-5{font-size:7px;font-family:DejaVuSans, DejaVu Sans;}.cls-6{clip-path:url(#clip-path-2);}.cls-7{stroke:#b0b0b0;}.cls-16,.cls-17,.cls-26,.cls-27,.cls-28,.cls-7{stroke-linecap:square;}.cls-8{clip-path:url(#clip-path-8);}.cls-9{fill:#1f77b4;}.cls-10,.cls-16,.cls-17{stroke:#1f77b4;}.cls-10,.cls-20{stroke-width:0.91px;}.cls-11{clip-path:url(#clip-path-9);}.cls-12{clip-path:url(#clip-path-10);}.cls-13{clip-path:url(#clip-path-11);}.cls-14{clip-path:url(#clip-path-12);}.cls-15{clip-path:url(#clip-path-13);}.cls-16,.cls-26{stroke-width:1.22px;}.cls-18{clip-path:url(#clip-path-22);}.cls-19{fill:#ff7f0e;}.cls-20,.cls-26,.cls-27{stroke:#ff7f0e;}.cls-21{clip-path:url(#clip-path-23);}.cls-22{clip-path:url(#clip-path-24);}.cls-23{clip-path:url(#clip-path-25);}.cls-24{clip-path:url(#clip-path-26);}.cls-25{clip-path:url(#clip-path-27);}.cls-28,.cls-29{stroke-miterlimit:10;}</style><clipPath id="clip-path"><rect class="cls-1" width="222.49" height="139.69"/></clipPath><clipPath id="clip-path-2"><rect class="cls-1" x="42.78" y="8.47" width="172.51" height="99.49"/></clipPath><clipPath id="clip-path-8"><rect class="cls-1" x="54" y="22.82" width="4.87" height="4.87"/></clipPath><clipPath id="clip-path-9"><rect class="cls-1" x="82.75" y="62.2" width="4.87" height="4.87"/></clipPath><clipPath id="clip-path-10"><rect class="cls-1" x="111.5" y="69.67" width="4.87" height="4.87"/></clipPath><clipPath id="clip-path-11"><rect class="cls-1" x="140.26" y="80.28" width="4.87" height="4.87"/></clipPath><clipPath id="clip-path-12"><rect class="cls-1" x="169.01" y="84.26" width="4.87" height="4.87"/></clipPath><clipPath id="clip-path-13"><rect class="cls-1" x="197.76" y="88.95" width="4.87" height="4.87"/></clipPath><clipPath id="clip-path-22"><rect class="cls-1" x="55.44" y="20.4" width="4.87" height="4.87"/></clipPath><clipPath id="clip-path-23"><rect class="cls-1" x="84.19" y="61.38" width="4.87" height="4.87"/></clipPath><clipPath id="clip-path-24"><rect class="cls-1" x="112.94" y="78.85" width="4.87" height="4.87"/></clipPath><clipPath id="clip-path-25"><rect class="cls-1" x="141.69" y="86.96" width="4.87" height="4.87"/></clipPath><clipPath id="clip-path-26"><rect class="cls-1" x="170.45" y="93.5" width="4.87" height="4.87"/></clipPath><clipPath id="clip-path-27"><rect class="cls-1" x="199.2" y="96.07" width="4.87" height="4.87"/></clipPath></defs><title>Artboard 1</title><g class="cls-2"><rect class="cls-3" width="222.49" height="139.69"/><rect class="cls-3" x="42.78" y="8.47" width="172.51" height="99.49"/><line class="cls-4" x1="57.15" y1="107.96" x2="57.15" y2="111.46"/><text class="cls-5" transform="translate(54.93 120.27)">1</text><line class="cls-4" x1="85.91" y1="107.96" x2="85.91" y2="111.46"/><text class="cls-5" transform="translate(83.68 120.27)">2</text><line class="cls-4" x1="114.66" y1="107.96" x2="114.66" y2="111.46"/><text class="cls-5" transform="translate(112.43 120.27)">3</text><line class="cls-4" x1="143.41" y1="107.96" x2="143.41" y2="111.46"/><text class="cls-5" transform="translate(141.18 120.27)">4</text><line class="cls-4" x1="172.16" y1="107.96" x2="172.16" y2="111.46"/><text class="cls-5" transform="translate(169.93 120.27)">5</text><line class="cls-4" x1="200.91" y1="107.96" x2="200.91" y2="111.46"/><text class="cls-5" transform="translate(198.69 120.27)">6</text><text class="cls-5" transform="translate(119.56 131.04)">Block</text><g class="cls-6"><line class="cls-7" x1="42.78" y1="107.44" x2="215.29" y2="107.44"/></g><line class="cls-4" x1="42.78" y1="107.44" x2="39.28" y2="107.44"/><text class="cls-5" transform="translate(17.97 110.09)">2000</text><g class="cls-6"><line class="cls-7" x1="42.78" y1="83.04" x2="215.29" y2="83.04"/></g><line class="cls-4" x1="42.78" y1="83.04" x2="39.28" y2="83.04"/><text class="cls-5" transform="translate(17.97 85.7)">3000</text><g class="cls-6"><line class="cls-7" x1="42.78" y1="58.65" x2="215.29" y2="58.65"/></g><line class="cls-4" x1="42.78" y1="58.65" x2="39.28" y2="58.65"/><text class="cls-5" transform="translate(17.97 61.3)">4000</text><g class="cls-6"><line class="cls-7" x1="42.78" y1="34.25" x2="215.29" y2="34.25"/></g><line class="cls-4" x1="42.78" y1="34.25" x2="39.28" y2="34.25"/><text class="cls-5" transform="translate(17.97 36.91)">5000</text><g class="cls-6"><line class="cls-7" x1="42.78" y1="9.86" x2="215.29" y2="9.86"/></g><line class="cls-4" x1="42.78" y1="9.86" x2="39.28" y2="9.86"/><text class="cls-5" transform="translate(17.97 12.51)">6000</text><text class="cls-5" transform="translate(12.51 93.22) rotate(-90)">Selection Time (ms)</text><g class="cls-6"><g class="cls-8"><path class="cls-9" d="M56.44,26.78A1.54,1.54,0,0,0,58,25.26a1.51,1.51,0,0,0-.45-1.08,1.51,1.51,0,0,0-2.15,0,1.51,1.51,0,0,0-.45,1.08,1.54,1.54,0,0,0,1.53,1.52Z"/><path class="cls-10" d="M56.44,26.78A1.54,1.54,0,0,0,58,25.26a1.51,1.51,0,0,0-.45-1.08,1.51,1.51,0,0,0-2.15,0,1.51,1.51,0,0,0-.45,1.08,1.54,1.54,0,0,0,1.53,1.52Z"/></g><g class="cls-11"><path class="cls-9" d="M85.19,66.15a1.52,1.52,0,1,0,0-3,1.55,1.55,0,0,0-1.08.44,1.52,1.52,0,0,0,0,2.16A1.55,1.55,0,0,0,85.19,66.15Z"/><path class="cls-10" d="M85.19,66.15a1.52,1.52,0,1,0,0-3,1.55,1.55,0,0,0-1.08.44,1.52,1.52,0,0,0,0,2.16A1.55,1.55,0,0,0,85.19,66.15Z"/></g><g class="cls-12"><path class="cls-9" d="M113.94,73.63a1.53,1.53,0,0,0,1.08-.45,1.55,1.55,0,0,0,.44-1.08,1.52,1.52,0,1,0-3,0,1.55,1.55,0,0,0,.44,1.08A1.51,1.51,0,0,0,113.94,73.63Z"/><path class="cls-10" d="M113.94,73.63a1.53,1.53,0,0,0,1.08-.45,1.55,1.55,0,0,0,.44-1.08,1.52,1.52,0,1,0-3,0,1.55,1.55,0,0,0,.44,1.08A1.51,1.51,0,0,0,113.94,73.63Z"/></g><g class="cls-13"><path class="cls-9" d="M142.69,84.23a1.5,1.5,0,1,0-1.08-.44A1.56,1.56,0,0,0,142.69,84.23Z"/><path class="cls-10" d="M142.69,84.23a1.5,1.5,0,1,0-1.08-.44A1.56,1.56,0,0,0,142.69,84.23Z"/></g><g class="cls-14"><path class="cls-9" d="M171.44,88.22a1.51,1.51,0,0,0,1.08-.45,1.55,1.55,0,0,0,.44-1.08,1.52,1.52,0,0,0-1.52-1.52,1.54,1.54,0,0,0-1.52,1.52,1.51,1.51,0,0,0,.45,1.08A1.49,1.49,0,0,0,171.44,88.22Z"/><path class="cls-10" d="M171.44,88.22a1.51,1.51,0,0,0,1.08-.45,1.55,1.55,0,0,0,.44-1.08,1.52,1.52,0,0,0-1.52-1.52,1.54,1.54,0,0,0-1.52,1.52,1.51,1.51,0,0,0,.45,1.08A1.49,1.49,0,0,0,171.44,88.22Z"/></g><g class="cls-15"><path class="cls-9" d="M200.19,92.91a1.51,1.51,0,0,0,1.08-.45,1.51,1.51,0,0,0,0-2.15,1.51,1.51,0,0,0-1.08-.45,1.53,1.53,0,0,0,0,3Z"/><path class="cls-10" d="M200.19,92.91a1.51,1.51,0,0,0,1.08-.45,1.51,1.51,0,0,0,0-2.15,1.51,1.51,0,0,0-1.08-.45,1.53,1.53,0,0,0,0,3Z"/></g></g><g class="cls-6"><polyline class="cls-16" points="56.44 25.26 85.19 64.63 113.94 72.1 142.69 82.71 171.44 86.69 200.19 91.39"/></g><g class="cls-6"><line class="cls-17" x1="56.44" y1="35.49" x2="56.44" y2="12.99"/></g><g class="cls-6"><line class="cls-17" x1="85.19" y1="73.68" x2="85.19" y2="54.36"/></g><g class="cls-6"><line class="cls-17" x1="113.94" y1="81.12" x2="113.94" y2="62.58"/></g><g class="cls-6"><line class="cls-17" x1="142.69" y1="90.5" x2="142.69" y2="75.26"/></g><g class="cls-6"><line class="cls-17" x1="171.44" y1="94.79" x2="171.44" y2="76.94"/></g><g class="cls-6"><line class="cls-17" x1="200.19" y1="98.81" x2="200.19" y2="83.52"/></g><g class="cls-6"><g class="cls-18"><path class="cls-19" d="M57.87,24.35A1.55,1.55,0,0,0,59,23.91a1.51,1.51,0,0,0,.45-1.08A1.53,1.53,0,0,0,59,21.75a1.55,1.55,0,0,0-1.08-.44,1.52,1.52,0,1,0,0,3Z"/><path class="cls-20" d="M57.87,24.35A1.55,1.55,0,0,0,59,23.91a1.51,1.51,0,0,0,.45-1.08A1.53,1.53,0,0,0,59,21.75a1.55,1.55,0,0,0-1.08-.44,1.52,1.52,0,1,0,0,3Z"/></g><g class="cls-21"><path class="cls-19" d="M86.62,65.33a1.52,1.52,0,1,0-1.07-.44A1.53,1.53,0,0,0,86.62,65.33Z"/><path class="cls-20" d="M86.62,65.33a1.52,1.52,0,1,0-1.07-.44A1.53,1.53,0,0,0,86.62,65.33Z"/></g><g class="cls-22"><path class="cls-19" d="M115.38,82.81a1.54,1.54,0,0,0,1.52-1.52,1.51,1.51,0,0,0-.45-1.08,1.51,1.51,0,0,0-2.15,0,1.51,1.51,0,0,0-.45,1.08,1.54,1.54,0,0,0,1.53,1.52Z"/><path class="cls-20" d="M115.38,82.81a1.54,1.54,0,0,0,1.52-1.52,1.51,1.51,0,0,0-.45-1.08,1.51,1.51,0,0,0-2.15,0,1.51,1.51,0,0,0-.45,1.08,1.54,1.54,0,0,0,1.53,1.52Z"/></g><g class="cls-23"><path class="cls-19" d="M144.13,90.91a1.52,1.52,0,1,0,0-3,1.55,1.55,0,0,0-1.08.44,1.52,1.52,0,0,0,0,2.16A1.55,1.55,0,0,0,144.13,90.91Z"/><path class="cls-20" d="M144.13,90.91a1.52,1.52,0,1,0,0-3,1.55,1.55,0,0,0-1.08.44,1.52,1.52,0,0,0,0,2.16A1.55,1.55,0,0,0,144.13,90.91Z"/></g><g class="cls-24"><path class="cls-19" d="M172.88,97.46A1.5,1.5,0,1,0,171.8,97,1.56,1.56,0,0,0,172.88,97.46Z"/><path class="cls-20" d="M172.88,97.46A1.5,1.5,0,1,0,171.8,97,1.56,1.56,0,0,0,172.88,97.46Z"/></g><g class="cls-25"><path class="cls-19" d="M201.63,100a1.53,1.53,0,0,0,1.08-.45,1.55,1.55,0,0,0,.44-1.08,1.52,1.52,0,1,0-3,0,1.55,1.55,0,0,0,.44,1.08A1.53,1.53,0,0,0,201.63,100Z"/><path class="cls-20" d="M201.63,100a1.53,1.53,0,0,0,1.08-.45,1.55,1.55,0,0,0,.44-1.08,1.52,1.52,0,1,0-3,0,1.55,1.55,0,0,0,.44,1.08A1.53,1.53,0,0,0,201.63,100Z"/></g></g><g class="cls-6"><polyline class="cls-26" points="57.87 22.83 86.62 63.81 115.38 81.29 144.13 89.39 172.88 95.94 201.63 98.5"/></g><g class="cls-6"><line class="cls-27" x1="57.87" y1="31.11" x2="57.87" y2="14.92"/></g><g class="cls-6"><line class="cls-27" x1="86.62" y1="71.62" x2="86.62" y2="54.51"/></g><g class="cls-6"><line class="cls-27" x1="115.38" y1="87.43" x2="115.38" y2="74.84"/></g><g class="cls-6"><line class="cls-27" x1="144.13" y1="95.31" x2="144.13" y2="83.31"/></g><g class="cls-6"><line class="cls-27" x1="172.88" y1="101.41" x2="172.88" y2="89.97"/></g><g class="cls-6"><line class="cls-27" x1="201.63" y1="103.44" x2="201.63" y2="92.59"/></g><line class="cls-28" x1="42.78" y1="107.96" x2="42.78" y2="8.47"/><line class="cls-28" x1="215.29" y1="107.96" x2="215.29" y2="8.47"/><line class="cls-28" x1="42.78" y1="107.96" x2="215.29" y2="107.96"/><line class="cls-28" x1="42.78" y1="8.47" x2="215.29" y2="8.47"/><rect class="cls-3" x="151.49" y="11.97" width="60.29" height="22.63" rx="1.4"/><rect class="cls-29" x="151.49" y="11.97" width="60.29" height="22.63" rx="1.4"/><path class="cls-9" d="M161.29,19.77a1.54,1.54,0,0,0,1.53-1.52,1.51,1.51,0,0,0-.45-1.08,1.51,1.51,0,0,0-2.15,0,1.51,1.51,0,0,0-.45,1.08,1.54,1.54,0,0,0,1.52,1.52Z"/><path class="cls-10" d="M161.29,19.77a1.54,1.54,0,0,0,1.53-1.52,1.51,1.51,0,0,0-.45-1.08,1.51,1.51,0,0,0-2.15,0,1.51,1.51,0,0,0-.45,1.08,1.54,1.54,0,0,0,1.52,1.52Z"/><text class="cls-5" transform="translate(173.89 20.08)">ExposeHK</text><path class="cls-19" d="M161.29,30a1.52,1.52,0,0,0,1.53-1.52,1.53,1.53,0,0,0-3,0A1.52,1.52,0,0,0,161.29,30Z"/><path class="cls-20" d="M161.29,30a1.52,1.52,0,0,0,1.53-1.52,1.53,1.53,0,0,0-3,0A1.52,1.52,0,0,0,161.29,30Z"/><text class="cls-5" transform="translate(173.89 30.35)">KeyMap</text></g></svg>