<?xml version="1.0" standalone="no"?>
<!DOCTYPE svg PUBLIC "-//W3C//DTD SVG 20010904//EN"
 "http://www.w3.org/TR/2001/REC-SVG-20010904/DTD/svg10.dtd">
<svg version="1.0" xmlns="http://www.w3.org/2000/svg"
 width="541.000000pt" height="541.000000pt" viewBox="0 0 541.000000 541.000000"
 preserveAspectRatio="xMidYMid meet">
<metadata>
Created by potrace 1.11, written by Peter Selinger 2001-2013
</metadata>
<g transform="translate(0.000000,541.000000) scale(0.100000,-0.100000)"
fill="#000000" stroke="none">
<path d="M210 5392 c-69 -25 -113 -56 -147 -104 -68 -95 -63 78 -61 -2171 l3
-2032 23 -45 c46 -91 106 -139 232 -183 41 -14 125 -44 185 -65 61 -22 268
-96 460 -165 193 -69 395 -142 450 -162 55 -20 111 -40 125 -45 14 -4 178 -63
365 -130 890 -320 807 -293 879 -287 41 4 124 29 256 78 226 83 359 131 450
164 36 12 101 36 145 53 44 17 206 76 360 132 306 112 519 189 780 286 94 34
250 92 348 127 192 70 241 98 288 161 63 86 59 -55 57 2161 l-3 2020 -24 47
c-30 61 -89 121 -148 149 -51 25 -158 34 -215 19 -31 -9 -244 -56 -298 -66
-13 -3 -56 -12 -95 -20 -38 -9 -77 -17 -86 -19 -9 -2 -61 -13 -115 -25 -55
-12 -110 -24 -124 -26 -14 -3 -33 -7 -42 -10 -10 -3 -30 -8 -45 -10 -16 -3
-66 -14 -113 -24 -47 -10 -96 -21 -110 -24 -14 -2 -142 -30 -285 -61 -143 -31
-298 -65 -345 -75 -47 -10 -119 -26 -160 -35 -41 -9 -86 -19 -100 -21 -14 -3
-63 -14 -110 -24 -47 -10 -96 -21 -110 -24 -14 -3 -36 -7 -50 -10 -133 -29
-119 -29 -312 13 -189 41 -249 54 -258 56 -3 1 -23 5 -45 10 -22 4 -47 9 -55
11 -34 7 -199 44 -260 58 -36 8 -78 17 -95 20 -16 3 -59 12 -95 20 -36 8 -141
30 -235 50 -93 20 -188 41 -210 46 -22 6 -51 12 -65 14 -14 2 -47 10 -75 16
-27 6 -59 13 -70 16 -11 2 -63 13 -115 24 -106 23 -364 79 -395 85 -11 3 -63
14 -115 25 -113 24 -160 24 -220 2z"/>
</g>
</svg>
