<svg id="Layer_1" data-name="Layer 1" xmlns="http://www.w3.org/2000/svg" xmlns:xlink="http://www.w3.org/1999/xlink" viewBox="0 0 252 180"><defs><style>.cls-1,.cls-12,.cls-3,.cls-4,.cls-6,.cls-9{fill:none;}.cls-2{clip-path:url(#clip-path);}.cls-3,.cls-4{stroke:#ebebeb;}.cls-12,.cls-3,.cls-4{stroke-linejoin:round;}.cls-3{stroke-width:0.53px;}.cls-4{stroke-width:1.07px;}.cls-5,.cls-7{fill:#377eb8;}.cls-22,.cls-5,.cls-8{opacity:0.5;}.cls-6{stroke:#377eb8;}.cls-6,.cls-9{stroke-linecap:square;stroke-miterlimit:10;}.cls-12,.cls-6,.cls-9{stroke-width:0.64px;}.cls-10,.cls-8{fill:#e41a1c;}.cls-9{stroke:#e41a1c;}.cls-11,.cls-13{font-size:9px;}.cls-11,.cls-13,.cls-19{font-family:Helvetica;}.cls-12{stroke:#000;}.cls-13{fill:#4d4d4d;}.cls-14{letter-spacing:-0.05em;}.cls-15{letter-spacing:-0.03em;}.cls-16{letter-spacing:-0.01em;}.cls-17{letter-spacing:-0.02em;}.cls-18{letter-spacing:0em;}.cls-19{font-size:11px;}.cls-20{letter-spacing:-0.12em;}.cls-21,.cls-22{fill:#595959;}</style><clipPath id="clip-path"><rect class="cls-1" x="38.48" y="5.48" width="208.04" height="155.67"/></clipPath></defs><title>Artboard 1</title><g class="cls-2"><line class="cls-3" x1="38.48" y1="136.38" x2="246.52" y2="136.38"/><line class="cls-3" x1="38.48" y1="101" x2="246.52" y2="101"/><line class="cls-3" x1="38.48" y1="65.62" x2="246.52" y2="65.62"/><line class="cls-3" x1="38.48" y1="30.24" x2="246.52" y2="30.24"/><line class="cls-4" x1="38.48" y1="154.07" x2="246.52" y2="154.07"/><line class="cls-4" x1="38.48" y1="118.69" x2="246.52" y2="118.69"/><line class="cls-4" x1="38.48" y1="83.31" x2="246.52" y2="83.31"/><line class="cls-4" x1="38.48" y1="47.93" x2="246.52" y2="47.93"/><line class="cls-4" x1="38.48" y1="12.56" x2="246.52" y2="12.56"/><rect class="cls-5" x="97.58" y="92.65" width="23.64" height="61.42"/><rect class="cls-6" x="97.58" y="92.65" width="23.64" height="61.42"/><rect class="cls-7" x="69.21" y="73.97" width="23.64" height="80.1"/><rect class="cls-6" x="69.21" y="73.97" width="23.64" height="80.1"/><rect class="cls-8" x="192.15" y="54.87" width="23.64" height="99.2"/><rect class="cls-9" x="192.15" y="54.87" width="23.64" height="99.2"/><rect class="cls-10" x="163.78" y="111.76" width="23.64" height="42.31"/><rect class="cls-9" x="163.78" y="111.76" width="23.64" height="42.31"/><text class="cls-11" transform="translate(100.65 89.42)">43.4</text><text class="cls-11" transform="translate(72.28 70.74)">56.6</text><text class="cls-11" transform="translate(195.21 51.64)">70.1</text><text class="cls-11" transform="translate(166.84 108.53)">29.9</text><line class="cls-12" x1="38.48" y1="154.07" x2="246.52" y2="154.07"/></g><text class="cls-13" transform="translate(28.55 157.3)">0</text><text class="cls-13" transform="translate(23.54 121.92)">25</text><text class="cls-13" transform="translate(23.54 86.54)">50</text><text class="cls-13" transform="translate(23.54 51.17)">75</text><text class="cls-13" transform="translate(18.54 15.79)">100</text><text class="cls-13" transform="translate(65.6 172.54)"><tspan class="cls-14">P</tspan><tspan x="5.56" y="0">ositi</tspan><tspan class="cls-15" x="21.57" y="0">v</tspan><tspan x="25.84" y="0">e F</tspan><tspan class="cls-16" x="38.85" y="0">r</tspan><tspan x="41.75" y="0">ame</tspan></text><text class="cls-13" transform="translate(157.93 172.54)">Negati<tspan class="cls-17" x="26.02" y="0">v</tspan><tspan class="cls-18" x="30.29" y="0">e F</tspan><tspan class="cls-16" x="43.29" y="0">r</tspan><tspan x="46.2" y="0">ame</tspan></text><text class="cls-19" transform="translate(13.38 136.44) rotate(-90)"><tspan class="cls-20">T</tspan><tspan x="5.41" y="0">reatment Choice (%)</tspan></text><rect class="cls-21" x="98.36" y="15.8" width="10.49" height="10.49"/><rect class="cls-22" x="154.16" y="15.8" width="10.49" height="10.49"/><text class="cls-11" transform="translate(114.75 24.28)">Riskless</text><text class="cls-11" transform="translate(170.55 24.28)">Risky</text></svg>